HIERARCHY
ROOT Hips
{
  OFFSET 0.0502701 92.146 0
  CHANNELS 6 Xposition Yposition Zposition Zrotation Xrotation Yrotation
  JOINT Bip01_Pelvis
  {
    OFFSET 0 0 0
    CHANNELS 6 Xposition Yposition Zposition Zrotation Xrotation Yrotation
    JOINT BN_Tai_01
    {
      OFFSET -4.6544 -2.06234 0
      CHANNELS 6 Xposition Yposition Zposition Zrotation Xrotation Yrotation
      JOINT BN_Tai_R_01
      {
        OFFSET 10.2279 -0.119812 3.68897
        CHANNELS 6 Xposition Yposition Zposition Zrotation Xrotation Yrotation
        JOINT BN_Tai_R_02
        {
          OFFSET 15.0421 0 1.52588e-005
          CHANNELS 6 Xposition Yposition Zposition Zrotation Xrotation Yrotation
          End Site
          {
            OFFSET 0 0 0
          }
        }
      }
      JOINT BN_Tai_L_01
      {
        OFFSET 10.2279 -0.119797 -3.68907
        CHANNELS 6 Xposition Yposition Zposition Zrotation Xrotation Yrotation
        JOINT BN_Tai_L_02
        {
          OFFSET 15.0421 0 0
          CHANNELS 6 Xposition Yposition Zposition Zrotation Xrotation Yrotation
          End Site
          {
            OFFSET 0 0 0
          }
        }
      }
    }
    JOINT Bip01_Spine
    {
      OFFSET 2.7319 1.49192 0
      CHANNELS 6 Xposition Yposition Zposition Zrotation Xrotation Yrotation
      JOINT Bip01_R_Thigh
      {
        OFFSET -2.85206 -1.24717 -6.20578
        CHANNELS 6 Xposition Yposition Zposition Zrotation Xrotation Yrotation
        JOINT Bip01_R_Calf
        {
          OFFSET 6.73247 0 0
          CHANNELS 6 Xposition Yposition Zposition Zrotation Xrotation Yrotation
          JOINT Bip01_R_HorseLink
          {
            OFFSET 8.08523 0 0
            CHANNELS 6 Xposition Yposition Zposition Zrotation Xrotation Yrotation
            JOINT Bip01_R_Foot
            {
              OFFSET 8.97518 0 0
              CHANNELS 6 Xposition Yposition Zposition Zrotation Xrotation Yrotation
              JOINT BN_Toe_R_30
              {
                OFFSET 1.58762 -0.234982 -0.295153
                CHANNELS 6 Xposition Yposition Zposition Zrotation Xrotation Yrotation
                JOINT BN_Toe_R_31
                {
                  OFFSET 3.03849 0 0
                  CHANNELS 6 Xposition Yposition Zposition Zrotation Xrotation Yrotation
                  End Site
                  {
                    OFFSET 0 0 0
                  }
                }
              }
              JOINT BN_Toe_R_00
              {
                OFFSET 1.65463 0.933666 1.02414
                CHANNELS 6 Xposition Yposition Zposition Zrotation Xrotation Yrotation
                JOINT BN_Toe_R_01
                {
                  OFFSET 3.51775 0 0
                  CHANNELS 6 Xposition Yposition Zposition Zrotation Xrotation Yrotation
                  End Site
                  {
                    OFFSET 0 0 0
                  }
                }
              }
              JOINT BN_Toe_R_20
              {
                OFFSET 1.47309 1.0106 -1.16708
                CHANNELS 6 Xposition Yposition Zposition Zrotation Xrotation Yrotation
                JOINT BN_Toe_R_21
                {
                  OFFSET 3.94896 0 0
                  CHANNELS 6 Xposition Yposition Zposition Zrotation Xrotation Yrotation
                  End Site
                  {
                    OFFSET 0 0 0
                  }
                }
              }
              JOINT BN_Toe_R_10
              {
                OFFSET 1.07522 1.64225 0.0223596
                CHANNELS 6 Xposition Yposition Zposition Zrotation Xrotation Yrotation
                JOINT BN_Toe_R_11
                {
                  OFFSET 4.09655 0 0
                  CHANNELS 6 Xposition Yposition Zposition Zrotation Xrotation Yrotation
                  End Site
                  {
                    OFFSET 0 0 0
                  }
                }
              }
              JOINT Bip01_R_Toe0
              {
                OFFSET 2.04238 1.88275 0
                CHANNELS 6 Xposition Yposition Zposition Zrotation Xrotation Yrotation
                End Site
                {
                  OFFSET 0 0 0
                }
              }
            }
          }
        }
      }
      JOINT Bip01_L_Thigh
      {
        OFFSET -2.85154 -1.24849 6.20577
        CHANNELS 6 Xposition Yposition Zposition Zrotation Xrotation Yrotation
        JOINT Bip01_L_Calf
        {
          OFFSET 6.73247 0 0
          CHANNELS 6 Xposition Yposition Zposition Zrotation Xrotation Yrotation
          JOINT Bip01_L_HorseLink
          {
            OFFSET 8.08524 0 0
            CHANNELS 6 Xposition Yposition Zposition Zrotation Xrotation Yrotation
            JOINT Bip01_L_Foot
            {
              OFFSET 8.97521 0 0
              CHANNELS 6 Xposition Yposition Zposition Zrotation Xrotation Yrotation
              JOINT BN_Toe_L_00
              {
                OFFSET 1.65461 0.933701 -1.02419
                CHANNELS 6 Xposition Yposition Zposition Zrotation Xrotation Yrotation
                JOINT BN_Toe_L_01
                {
                  OFFSET 3.51778 0 0
                  CHANNELS 6 Xposition Yposition Zposition Zrotation Xrotation Yrotation
                  End Site
                  {
                    OFFSET 0 0 0
                  }
                }
              }
              JOINT BN_Toe_L_10
              {
                OFFSET 1.07523 1.6422 -0.0221281
                CHANNELS 6 Xposition Yposition Zposition Zrotation Xrotation Yrotation
                JOINT BN_Toe_L_11
                {
                  OFFSET 4.09657 0 0
                  CHANNELS 6 Xposition Yposition Zposition Zrotation Xrotation Yrotation
                  End Site
                  {
                    OFFSET 0 0 0
                  }
                }
              }
              JOINT BN_Toe_L_30
              {
                OFFSET 1.58761 -0.234954 0.295135
                CHANNELS 6 Xposition Yposition Zposition Zrotation Xrotation Yrotation
                JOINT BN_Toe_L_31
                {
                  OFFSET 3.03847 0 0
                  CHANNELS 6 Xposition Yposition Zposition Zrotation Xrotation Yrotation
                  End Site
                  {
                    OFFSET 0 0 0
                  }
                }
              }
              JOINT BN_Toe_L_20
              {
                OFFSET 1.4731 1.01055 1.1673
                CHANNELS 6 Xposition Yposition Zposition Zrotation Xrotation Yrotation
                JOINT BN_Toe_L_21
                {
                  OFFSET 3.94897 0 0
                  CHANNELS 6 Xposition Yposition Zposition Zrotation Xrotation Yrotation
                  End Site
                  {
                    OFFSET 0 0 0
                  }
                }
              }
              JOINT Bip01_L_Toe0
              {
                OFFSET 2.04238 1.88276 0
                CHANNELS 6 Xposition Yposition Zposition Zrotation Xrotation Yrotation
                End Site
                {
                  OFFSET 0 0 0
                }
              }
            }
          }
        }
      }
      JOINT Bip01_Spine1
      {
        OFFSET 8.6167 -0.00679016 0
        CHANNELS 6 Xposition Yposition Zposition Zrotation Xrotation Yrotation
        JOINT BN_Wing_R_01
        {
          OFFSET 0.267445 -6.12421 -7.49305
          CHANNELS 6 Xposition Yposition Zposition Zrotation Xrotation Yrotation
          JOINT BN_Wing_R_02
          {
            OFFSET 14.7158 0 0
            CHANNELS 6 Xposition Yposition Zposition Zrotation Xrotation Yrotation
            JOINT BN_Wing_R_03
            {
              OFFSET 19.0858 0 0
              CHANNELS 6 Xposition Yposition Zposition Zrotation Xrotation Yrotation
              JOINT BN_Wing_R_05
              {
                OFFSET 2.68908 -0.270637 0.785261
                CHANNELS 6 Xposition Yposition Zposition Zrotation Xrotation Yrotation
                JOINT BN_Wing_R_06
                {
                  OFFSET 21.1083 0 0
                  CHANNELS 6 Xposition Yposition Zposition Zrotation Xrotation Yrotation
                  End Site
                  {
                    OFFSET 0 0 0
                  }
                }
              }
              JOINT BN_Wing_R_04
              {
                OFFSET 27.642 0 0
                CHANNELS 6 Xposition Yposition Zposition Zrotation Xrotation Yrotation
                End Site
                {
                  OFFSET 0 0 0
                }
              }
            }
          }
        }
        JOINT BN_Wing_L_01
        {
          OFFSET 0.267452 -6.12421 7.49305
          CHANNELS 6 Xposition Yposition Zposition Zrotation Xrotation Yrotation
          JOINT BN_Wing_L_02
          {
            OFFSET 14.7158 0 0
            CHANNELS 6 Xposition Yposition Zposition Zrotation Xrotation Yrotation
            JOINT BN_Wing_L_03
            {
              OFFSET 19.0858 0 0
              CHANNELS 6 Xposition Yposition Zposition Zrotation Xrotation Yrotation
              JOINT BN_Wing_L_05
              {
                OFFSET 2.68908 -0.270635 -0.785254
                CHANNELS 6 Xposition Yposition Zposition Zrotation Xrotation Yrotation
                JOINT BN_Wing_L_06
                {
                  OFFSET 21.1083 0 0
                  CHANNELS 6 Xposition Yposition Zposition Zrotation Xrotation Yrotation
                  End Site
                  {
                    OFFSET 0 0 0
                  }
                }
              }
              JOINT BN_Wing_L_04
              {
                OFFSET 27.642 0 1.14441e-005
                CHANNELS 6 Xposition Yposition Zposition Zrotation Xrotation Yrotation
                End Site
                {
                  OFFSET 0 0 0
                }
              }
            }
          }
        }
        JOINT Bip01_Neck
        {
          OFFSET 7.59958 -1.43237 0
          CHANNELS 6 Xposition Yposition Zposition Zrotation Xrotation Yrotation
          JOINT Bip01_Neck1
          {
            OFFSET 3.64749 -0.00262451 0
            CHANNELS 6 Xposition Yposition Zposition Zrotation Xrotation Yrotation
            JOINT Bip01_Neck2
            {
              OFFSET 3.32331 -0.00284576 0
              CHANNELS 6 Xposition Yposition Zposition Zrotation Xrotation Yrotation
              JOINT Bip01_Head
              {
                OFFSET 4.63256 -0.573471 0
                CHANNELS 6 Xposition Yposition Zposition Zrotation Xrotation Yrotation
                JOINT BN_Jaw
                {
                  OFFSET 1.05386 2.23561 0
                  CHANNELS 6 Xposition Yposition Zposition Zrotation Xrotation Yrotation
                  End Site
                  {
                    OFFSET 0 0 0
                  }
                }
              }
            }
          }
        }
      }
    }
  }
}
MOTION
Frames:	4
Frame Time:	0.0333333
0.0502689 99.9251 3.8095e-008 -104.136 -90 -7.77771 0 0 0 -89.9965 -3.50835e-015 -90 -4.6544 -2.06233 1.83881e-015 -26.6884 1.98617 -179.735 10.228 -0.119782 3.68875 22.3603 77.9252 -15.9936 15.0421 -0.000527382 1.42108e-014 4.2172 -4.9399 -5.12111 10.2278 -0.119759 -3.6893 -143.915 76.6316 150.228 15.0421 -0.000518322 -1.52588e-005 -4.22275 4.94024 -5.12296 3.1123 0.111917 2.64459e-015 -12.4921 3.74254e-006 -1.68933e-005 -3.01475 -0.782087 -6.20579 -100.607 -7.28237 -176.095 6.73248 3.8147e-006 -3.09944e-006 -99.0904 -1.51016e-006 1.00448e-005 8.08523 1.52588e-005 2.86102e-006 6.56427 2.76308e-007 1.65731e-007 8.97519 7.6294e-006 2.66454e-015 -70.8643 8.05824 1.61618 1.5876 -0.234968 -0.295153 -155.945 -4.82581 -175.829 3.03848 -1.14441e-005 2.38419e-007 -25.9465 1.19925e-007 8.30627e-007 1.65461 0.933662 1.02414 61.3732 34.4185 -23.874 3.51775 0 -3.8147e-006 2.06929 -1.75593e-005 1.96727e-006 1.47309 1.01061 -1.16708 65.07 -49.5153 18.2568 3.94897 -7.10543e-015 3.8147e-006 -24.9478 -1.52625e-005 -4.1401e-006 1.0752 1.64226 0.0223622 35.3742 -5.47418 -3.06633 4.09654 -1.42109e-014 -4.76837e-007 19.9226 1.26936e-005 6.14099e-006 2.04237 1.88276 2.27596e-012 104.441 -17.8881 45.4467 -3.01476 -0.782107 6.20577 -134.012 10.6779 177.608 6.73248 -3.8147e-006 -9.53674e-007 -126.982 -1.58837e-006 -1.92399e-007 8.08523 1.42109e-014 0 -2.04245 1.01064e-005 4.52078e-007 8.97519 -4.26326e-014 -1.77636e-015 -41.3089 -10.9063 -0.530697 1.65462 0.933689 -1.02419 32.8951 -47.4198 16.3956 3.51775 7.62939e-006 -3.8147e-006 -4.54451 -0.000148253 0.0019916 1.07523 1.6422 -0.0221257 21.3869 4.57554 4.30577 4.09656 -7.62939e-006 -4.76837e-007 -15.7043 1.42257e-005 -1.41276e-005 1.58763 -0.234943 0.295138 -176.61 6.00087 177.762 3.03847 0 -3.55271e-015 -24.4728 5.34599e-006 1.30473e-005 1.47312 1.01056 1.1673 19.3497 53.2334 -9.25319 3.94895 7.10543e-015 -7.10543e-015 -2.06213 -3.31455e-006 -7.58399e-007 2.04238 1.88275 4.76843e-007 71.6059 23.2744 -27.754 8.61878 -0.0067749 4.65661e-010 9.15482 7.13738e-006 -1.86763e-005 0.267454 -6.1242 -7.49305 -99.9953 -22.1791 99.5433 14.7159 -2.86102e-006 4.26326e-014 69.2642 3.20137 7.90657 19.0859 3.81469e-006 -7.6294e-006 -76.8241 -16.2972 69.7153 2.68912 -0.270633 0.785261 -39.5954 3.34944 10.7058 21.1083 1.44951e-012 -3.8147e-006 4.38416 -0.153189 22.6977 27.642 7.62939e-006 3.8147e-006 -2.63454 -0.0482576 41.1811 0.267454 -6.12423 7.49305 -99.9953 22.1791 -99.5432 14.7159 -3.8147e-006 -7.62939e-006 69.2642 -3.20136 -7.90657 19.0858 3.8147e-006 -3.69482e-013 -76.8241 16.2972 -69.7153 2.68912 -0.270641 -0.785265 -39.5954 -3.34943 -10.7058 21.1083 7.10542e-015 2.30926e-013 4.30835 0.197063 -22.8767 27.642 1.90735e-006 -3.8147e-006 -2.63453 0.0482616 -41.1812 7.59931 -1.43243 4.65661e-010 -6.98817 -1.21892e-006 9.94345e-006 3.64782 -0.00263977 -3.46945e-018 2.91345 1.0005e-005 -5.09166e-007 3.3241 -0.00283051 1.73472e-018 6.45919 -4.94463e-013 6.49398e-012 4.63256 -0.573464 1.04083e-017 -30.3718 3.57775e-006 1.37081e-005 1.05387 2.23561 -7.76289e-016 -98.1388 -0.0229645 -179.98 
0.0502689 99.8342 3.78195e-008 -100.152 -90 -3.97956 0 0 0 -89.9992 -0.652238 -89.9972 -4.6544 -2.06233 1.99222e-015 -26.6179 1.98649 -179.737 10.228 -0.119782 3.68875 22.3662 77.9776 -16.2378 15.0421 -0.000527382 1.42108e-014 4.38222 -4.93263 -1.02051 10.2278 -0.119759 -3.6893 -143.894 76.6674 149.973 15.0421 -0.000518322 -1.52588e-005 -4.38709 4.93274 -1.0217 3.11358 0.0769712 1.05791e-013 -12.9672 3.88248e-006 -1.68617e-005 -3.01699 -0.773186 -6.20579 -102.287 -7.51246 -176.253 6.73248 3.8147e-006 -3.09944e-006 -101.632 -1.17662e-005 7.94816e-006 8.08523 1.52588e-005 2.86102e-006 8.26578 2.81107e-007 1.57453e-007 8.97519 7.6294e-006 8.88179e-015 -72.0949 8.1633 1.69116 1.5876 -0.234968 -0.295153 -156.47 -4.85744 -175.882 3.03848 -1.14441e-005 2.38419e-007 -25.688 1.25862e-007 8.33365e-007 1.65461 0.933662 1.02414 61.9565 34.2036 -24.2028 3.51775 0 -3.8147e-006 2.53762 -1.75974e-005 1.99163e-006 1.47309 1.01061 -1.16708 65.8418 -49.3457 18.8434 3.94897 2.84217e-014 3.8147e-006 -24.4581 -1.95081e-005 5.04495e-006 1.0752 1.64226 0.0223622 35.9103 -5.50264 -3.01521 4.09654 -1.42109e-014 -4.76837e-007 20.4119 1.27324e-005 6.03273e-006 2.04237 1.88276 2.0921e-012 104.226 -17.7108 45.501 -3.017 -0.773204 6.20577 -137.577 10.9236 178.064 6.73248 -3.8147e-006 -9.53674e-007 -129.044 -1.14781e-006 1.58546e-007 8.08523 0 5.32907e-015 -3.26347 1.01168e-005 6.95236e-007 8.97519 -1.42109e-014 -3.55271e-015 -40.2226 -11.0621 -0.46743 1.65462 0.933689 -1.02419 31.0684 -47.7701 15.0408 3.51775 7.62939e-006 -3.8147e-006 -5.124 -7.82752e-005 0.000984934 1.07523 1.6422 -0.0221257 20.1909 4.48477 4.40024 4.09656 -7.62939e-006 -4.76837e-007 -16.2813 1.4323e-005 -1.39822e-005 1.58763 -0.234943 0.295138 -176.677 6.00512 177.769 3.03847 -2.84217e-014 -3.55271e-015 -24.871 5.2642e-006 1.30883e-005 1.47312 1.01056 1.1673 18.5303 53.3104 -8.59646 3.94895 -7.10543e-015 1.42109e-014 -2.64034 -3.75525e-006 9.2243e-006 2.04238 1.88275 4.76837e-007 68.9221 23.7948 -27.3073 8.61878 -0.0067749 4.65661e-010 8.52535 7.34213e-006 -1.85968e-005 0.267454 -6.1242 -7.49305 -106.593 -21.7477 86.7529 14.7159 -2.86102e-006 0 76.5347 4.11714 7.62766 19.0859 3.81469e-006 -7.6294e-006 -76.8248 -20.1334 71.9983 2.68912 -0.270633 0.785261 -38.1462 3.70494 11.4658 21.1083 1.39266e-012 -3.8147e-006 5.58714 0.671399 24.2342 27.642 7.62939e-006 3.8147e-006 -2.63172 -0.0450072 43.3695 0.267454 -6.12423 7.49305 -105.874 21.7627 -87.6958 14.7159 -3.8147e-006 -7.62939e-006 75.049 -3.93188 -7.60908 19.0858 3.8147e-006 -2.41585e-013 -76.8248 20.1334 -71.9983 2.68912 -0.270641 -0.785265 -38.4219 -3.63103 -11.4248 21.1083 7.10542e-015 2.30926e-013 5.44574 -0.504295 -24.5143 27.642 1.90735e-006 -3.8147e-006 -2.63221 0.0467295 -43.0398 7.59931 -1.43243 4.65661e-010 -6.6277 -1.15634e-006 9.95092e-006 3.64782 -0.00263977 4.33681e-019 2.44219 1.00089e-005 -4.26859e-007 3.3241 -0.00283051 -4.33681e-019 6.68205 -4.61379e-013 6.49374e-012 4.63256 -0.573464 1.11673e-016 -30.7133 3.49598e-006 1.37292e-005 1.05387 2.23561 -2.06974e-015 -98.3086 -0.0244446 -179.979 
0.0502688 99.5073 3.68292e-008 -68.6363 -90 27.3395 0 0 0 -89.9974 -1.38706 -89.9975 -4.6544 -2.06233 1.99146e-015 -26.4248 1.98738 -179.744 10.228 -0.119782 3.68875 22.3875 78.1159 -16.9083 15.0421 -0.000527382 1.42108e-014 4.54311 -4.91399 3.00031 10.2278 -0.119759 -3.6893 -143.811 76.7706 149.245 15.0421 -0.000518322 -1.52588e-005 -4.54729 4.91391 2.99979 3.11347 0.0353991 2.27591e-013 -13.6819 4.09251e-006 -1.68119e-005 -3.01699 -0.770606 -6.20579 -104.004 -7.77745 -176.439 6.73248 3.8147e-006 -3.09944e-006 -105.191 -3.50043e-006 9.57459e-006 8.08523 1.52588e-005 2.86102e-006 10.9277 2.88117e-007 1.44228e-007 8.97519 7.6294e-006 5.32907e-015 -73.4606 8.31137 1.77156 1.5876 -0.234968 -0.295153 -156.985 -4.88798 -175.934 3.03848 -1.14441e-005 2.38419e-007 -25.4346 1.31494e-007 8.35745e-007 1.65461 0.933662 1.02414 62.5255 33.9902 -24.5218 3.51775 -1.42109e-014 -3.8147e-006 2.99686 -1.71511e-005 1.13202e-005 1.47309 1.01061 -1.16708 66.5933 -49.1744 19.4132 3.94897 7.10543e-015 3.8147e-006 -23.978 -1.58234e-005 -3.17511e-006 1.0752 1.64226 0.0223622 36.4361 -5.53007 -2.9648 4.09654 -1.42109e-014 -4.76837e-007 20.8917 1.2771e-005 5.92631e-006 2.04237 1.88276 1.8292e-012 104.015 -17.5371 45.555 -3.017 -0.770624 6.20577 -140.733 11.1229 178.504 6.73248 -3.8147e-006 -9.53674e-007 -131.062 -1.17965e-006 1.47655e-007 8.08523 -1.42109e-014 -7.10543e-015 -4.34102 1.00602e-005 1.81194e-006 8.97519 -1.42109e-014 0 -39.131 -11.2016 -0.406254 1.65462 0.933689 -1.02419 29.4649 -48.0512 13.8435 3.51775 7.62939e-006 -3.8147e-006 -5.69223 8.98139e-006 1.06908e-005 1.07523 1.6422 -0.0221257 19.1562 4.40467 4.48043 4.09656 -7.62939e-006 -4.76837e-007 -16.847 1.44197e-005 -1.38364e-005 1.58763 -0.234943 0.295138 -176.742 6.00928 177.776 3.03847 1.42109e-014 0 -25.2614 5.18163e-006 1.3128e-005 1.47312 1.01056 1.1673 17.7239 53.3804 -7.94952 3.94895 -7.10543e-015 1.42109e-014 -3.20732 -3.33213e-006 1.69668e-007 2.04238 1.88275 4.76843e-007 66.2759 24.2862 -26.8422 8.61878 -0.0067749 4.65661e-010 7.65398 7.62409e-006 -1.8483e-005 0.267454 -6.1242 -7.49305 -112.184 -19.8874 74.728 14.7159 -2.86102e-006 0 83.3266 4.974 7.26158 19.0859 3.81469e-006 -7.6294e-006 -76.1859 -24.4086 73.2728 2.68912 -0.270633 0.785261 -36.8304 4.03719 12.0294 21.1083 1.43529e-012 -3.8147e-006 6.38466 1.3492 25.2856 27.642 7.62939e-006 3.8147e-006 -2.63052 -0.0450064 44.6859 0.267454 -6.12423 7.49305 -111.867 20.0632 -75.4217 14.7159 -3.8147e-006 -7.62939e-006 81.6541 -4.76273 -7.30285 19.0858 3.81469e-006 -1.42109e-014 -76.1859 24.4086 -73.2728 2.68912 -0.270641 -0.785265 -37.1361 -3.95264 -11.9852 21.1083 0 4.54747e-013 6.25734 -1.1994 -25.6474 27.642 1.90735e-006 -3.8147e-006 -2.62999 0.0451534 -44.8624 7.59931 -1.43243 4.65662e-010 -5.95836 -1.04001e-006 9.96375e-006 3.64782 -0.00263977 8.67362e-019 1.83608 1.00128e-005 -3.20957e-007 3.3241 -0.00283051 -1.73472e-018 6.90059 -4.3198e-013 6.49858e-012 4.63256 -0.573464 1.37043e-016 -31.0481 3.41568e-006 1.37494e-005 1.05387 2.23561 -1.85789e-015 -98.4751 -0.0259094 -179.977 
0.0502688 98.9804 3.52327e-008 -5.77221 -90 90 0 0 0 -89.9976 -2.17924 -89.9975 -4.6544 -2.06233 2.06606e-015 -26.119 1.98871 -179.754 10.228 -0.119782 3.68875 22.4452 78.3305 -17.9896 15.0421 -0.000527382 1.42108e-014 4.70386 -4.88386 7.06075 10.2278 -0.119759 -3.6893 -143.678 76.9252 148.092 15.0421 -0.000518322 -1.52588e-005 -4.70734 4.88364 7.06089 3.11336 -0.00660488 3.51371e-013 -14.5981 4.36082e-006 -1.67443e-005 -3.01475 -0.777911 -6.20579 -105.735 -8.07117 -176.655 6.73248 3.8147e-006 -3.09944e-006 -109.543 -3.30746e-006 9.60417e-006 8.08523 1.52588e-005 2.86102e-006 14.3267 2.96161e-007 1.26892e-007 8.97519 7.6294e-006 3.55271e-015 -74.9265 8.4889 1.86408 1.5876 -0.234968 -0.295153 -157.505 -4.91836 -175.988 3.03848 -1.14441e-005 2.38419e-007 -25.1787 1.3684e-007 8.38115e-007 1.65461 0.933662 1.02414 63.0972 33.7721 -24.8405 3.51775 -1.42109e-014 -3.8147e-006 3.46066 -1.77161e-005 1.4882e-006 1.47309 1.01061 -1.16708 67.347 -48.9965 19.9832 3.94897 7.10543e-015 3.8147e-006 -23.4931 -1.95354e-005 5.24154e-006 1.0752 1.64226 0.0223622 36.9671 -5.55731 -2.91363 4.09654 0 -4.76837e-007 21.3762 1.28091e-005 5.81829e-006 2.04237 1.88276 2.06546e-012 103.802 -17.3619 45.6101 -3.01476 -0.777931 6.20577 -143.411 11.2965 178.903 6.73248 -3.8147e-006 -9.53674e-007 -133.006 -1.20298e-006 1.36973e-007 8.08523 -1.42109e-014 7.10543e-015 -5.20907 1.01353e-005 1.15068e-006 8.97519 0 5.32907e-015 -38.0725 -11.3311 -0.346032 1.65462 0.933689 -1.02419 28.1047 -48.2676 12.8279 3.51775 7.62939e-006 -3.8147e-006 -5.92951 -0.0014333 0.0138971 1.07523 1.6422 -0.0221257 18.2837 4.33599 4.54692 4.09656 -7.62939e-006 -4.76837e-007 -17.0796 1.44439e-005 -1.37708e-005 1.58763 -0.234943 0.295138 -176.808 6.01347 177.783 3.03847 0 -3.55271e-015 -25.6557 5.0963e-006 1.31668e-005 1.47312 1.01056 1.1673 17.0853 53.4318 -7.43679 3.94895 -7.10543e-015 4.26326e-014 -3.44001 -3.88111e-006 9.23445e-006 2.04238 1.88275 4.76844e-007 63.5887 24.7618 -26.3458 8.61878 -0.0067749 4.65661e-010 6.59929 7.96301e-006 -1.83395e-005 0.267454 -6.1242 -7.49305 -116.32 -17.0984 63.806 14.7159 -2.86102e-006 -1.42109e-014 89.1439 5.70388 6.79119 19.0859 3.81469e-006 -7.6294e-006 -75.4612 -29.3027 73.6992 2.68912 -0.270633 0.785261 -35.7269 4.31832 12.4246 21.1083 1.40687e-012 -3.8147e-006 7.17765 2.04852 26.3381 27.642 7.62939e-006 3.8147e-006 -2.62932 -0.0449779 46.0153 0.267454 -6.12423 7.49305 -116.731 17.2209 -63.8051 14.7159 -3.8147e-006 -7.62939e-006 88.0162 -5.56169 -6.89988 19.0858 3.81469e-006 1.42109e-013 -75.4612 29.3027 -73.6992 2.68912 -0.270641 -0.785265 -35.9325 -4.26324 -12.3956 21.1083 0 4.54747e-013 7.06318 -1.9176 -26.7818 27.642 1.90735e-006 -3.8147e-006 -2.63067 0.0446189 -45.7299 7.59931 -1.43243 4.65661e-010 -5.04804 -8.81582e-007 9.97901e-006 3.64782 -0.00263977 1.30104e-018 1.1226 1.0016e-005 -1.9625e-007 3.3241 -0.00283051 -2.60209e-018 7.09975 -3.9075e-013 6.49793e-012 4.63256 -0.573464 4.2067e-017 -31.3863 3.33447e-006 1.37693e-005 1.05387 2.23561 -9.13332e-016 -98.6433 -0.0273895 -179.976 
